<?xml version="1.0" standalone="no"?>
<!DOCTYPE svg PUBLIC "-//W3C//DTD SVG 20010904//EN"
 "http://www.w3.org/TR/2001/REC-SVG-20010904/DTD/svg10.dtd">
<svg version="1.0" xmlns="http://www.w3.org/2000/svg"
 width="16.000000pt" height="16.000000pt" viewBox="0 0 16.000000 16.000000"
 preserveAspectRatio="xMidYMid meet">
<metadata>
Created by potrace 1.11, written by Peter Selinger 2001-2013
</metadata>
<g transform="translate(0.000000,16.000000) scale(0.004954,-0.004954)"
fill="#000000" stroke="none">
<path d="M1350 3218 c-101 -21 -219 -54 -289 -80 -41 -15 -78 -25 -82 -23 -4
3 -9 2 -11 -2 -1 -5 -32 -23 -68 -41 -36 -18 -84 -44 -107 -57 -22 -13 -44
-21 -49 -17 -4 4 -4 2 0 -5 4 -8 -5 -18 -24 -28 -16 -8 -30 -13 -30 -11 0 2
-13 -8 -29 -22 -39 -36 -59 -52 -66 -52 -7 0 -210 -203 -243 -244 -54 -65
-141 -201 -173 -268 -13 -27 -26 -48 -29 -48 -4 0 -20 -38 -36 -84 -15 -47
-31 -83 -35 -80 -4 2 -5 -5 -2 -16 3 -11 1 -26 -4 -33 -10 -12 -41 -132 -62
-235 -16 -80 -14 -436 3 -519 8 -37 17 -81 20 -98 6 -38 30 -121 46 -160 6
-16 11 -31 11 -33 -1 -1 6 -18 14 -38 8 -20 15 -39 15 -41 0 -6 29 -74 40 -93
5 -8 19 -33 31 -55 53 -98 183 -276 261 -355 153 -156 362 -293 568 -373 60
-23 88 -32 205 -66 111 -32 202 -40 425 -37 124 2 241 8 260 13 19 6 62 16 95
23 33 8 66 18 72 23 7 5 20 7 28 3 8 -3 15 -2 15 3 0 11 81 32 93 24 6 -3 7
-2 4 4 -6 9 100 60 116 55 4 -1 7 2 7 7 0 5 15 14 33 22 17 7 44 21 60 31 15
11 27 17 27 14 0 -3 9 3 20 14 12 12 25 18 30 15 6 -4 10 -2 10 3 0 5 17 21
38 34 74 49 243 210 327 311 22 27 48 57 58 68 9 10 15 19 12 19 -3 0 10 25
29 55 68 106 136 248 162 340 8 28 19 59 24 70 5 11 19 65 32 120 20 89 23
125 23 330 0 216 -9 316 -35 395 -4 14 -16 52 -25 85 -9 33 -33 98 -52 145
-19 47 -40 99 -46 115 -7 17 -15 32 -18 35 -3 3 -14 19 -23 37 -9 18 -36 61
-61 96 -25 36 -45 68 -45 71 0 4 -6 13 -12 21 -92 107 -198 214 -257 259 -152
115 -187 139 -296 197 -101 53 -328 131 -424 145 -19 2 -52 9 -75 14 -52 12
-446 11 -506 -2z m-369 -603 c139 -47 314 -165 527 -355 107 -94 298 -290 388
-397 l77 -93 66 1 c36 0 100 4 141 8 l75 7 70 -70 c39 -39 122 -125 185 -191
l115 -120 -65 -6 c-36 -4 -123 -7 -194 -8 l-129 -1 7 -37 c30 -161 14 -200
-139 -333 -133 -115 -197 -133 -317 -90 l-78 29 -4 -22 c-3 -12 -17 -101 -31
-197 -15 -96 -30 -178 -34 -182 -3 -4 -40 38 -81 94 -41 56 -114 150 -162 210
l-86 109 12 52 c7 28 23 95 36 148 l23 96 -30 34 c-238 263 -415 525 -557 820
-81 169 -110 269 -109 372 0 76 15 105 73 145 42 28 84 24 221 -23z m1383
-1765 c30 -90 53 -166 50 -169 -3 -3 -24 4 -47 16 -23 11 -93 43 -154 70 -62
26 -113 51 -113 55 0 10 201 201 206 196 1 -2 28 -77 58 -168z"/>
<path d="M1053 2311 c-79 -37 -124 -152 -94 -243 15 -45 73 -104 118 -119 58
-19 145 -7 187 25 70 53 98 132 76 211 -34 122 -167 180 -287 126z"/>
</g>
</svg>
